<svg width="512" height="512" viewBox="0 0 512 512" fill="none" xmlns="http://www.w3.org/2000/svg">
<g clip-path="url(#clip0_10945_13)">
<path d="M448 183.8V60.8C448.018 54.9192 446.875 49.0927 444.636 43.6548C442.397 38.217 439.106 33.2749 434.951 29.1124C430.797 24.9498 425.862 21.6487 420.428 19.3985C414.995 17.1483 409.171 15.9934 403.29 16H280.36C272.299 16.0166 264.57 19.211 258.85 24.89L13.09 270.58C4.70816 278.989 0.00154114 290.377 0.00154114 302.25C0.00154114 314.123 4.70816 325.511 13.09 333.92L130.09 450.92C138.496 459.304 149.883 464.012 161.755 464.012C173.627 464.012 185.014 459.304 193.42 450.92L439.11 205.31C444.791 199.591 447.986 191.861 448 183.8ZM352 144C345.671 144 339.484 142.123 334.222 138.607C328.959 135.091 324.858 130.093 322.436 124.246C320.014 118.399 319.38 111.965 320.615 105.757C321.85 99.5497 324.897 93.8479 329.373 89.3726C333.848 84.8973 339.55 81.8496 345.757 80.6149C351.965 79.3802 358.399 80.0139 364.246 82.4359C370.093 84.8579 375.091 88.9594 378.607 94.2218C382.123 99.4842 384 105.671 384 112C384 120.487 380.629 128.626 374.627 134.627C368.626 140.629 360.487 144 352 144Z" fill="#1AA090"/>
<path d="M496 64C491.757 64 487.687 65.6857 484.686 68.6863C481.686 71.6869 480 75.7565 480 80V207.37L218.69 468.69C217.142 470.161 215.904 471.927 215.049 473.884C214.194 475.841 213.739 477.949 213.712 480.085C213.684 482.22 214.085 484.34 214.889 486.318C215.694 488.296 216.887 490.093 218.397 491.603C219.907 493.113 221.704 494.306 223.682 495.111C225.66 495.915 227.78 496.316 229.915 496.288C232.051 496.261 234.159 495.806 236.116 494.951C238.073 494.096 239.839 492.858 241.31 491.31L503.31 229.31C506.097 226.51 508.3 223.185 509.792 219.526C511.284 215.868 512.034 211.95 512 208V80C512 75.7565 510.314 71.6869 507.314 68.6863C504.313 65.6857 500.243 64 496 64Z" fill="#1AA090"/>
</g>
<defs>
<clipPath id="clip0_10945_13">
<rect width="512" height="512" fill="white"/>
</clipPath>
</defs>
</svg>
